<?xml version="1.0" encoding="UTF-8" standalone="no"?>
<svg
   viewBox="0 0 512 512"
   version="1.1"
   id="svg4"
   sodipodi:docname="th.svg"
   inkscape:version="1.1.1 (3bf5ae0d25, 2021-09-20)"
   xmlns:inkscape="http://www.inkscape.org/namespaces/inkscape"
   xmlns:sodipodi="http://sodipodi.sourceforge.net/DTD/sodipodi-0.dtd"
   xmlns="http://www.w3.org/2000/svg"
   xmlns:svg="http://www.w3.org/2000/svg">
  <defs
     id="defs8" />
  <sodipodi:namedview
     id="namedview6"
     pagecolor="#ffffff"
     bordercolor="#666666"
     borderopacity="1.0"
     inkscape:pageshadow="2"
     inkscape:pageopacity="0.0"
     inkscape:pagecheckerboard="0"
     showgrid="false"
     inkscape:zoom="1.5859375"
     inkscape:cx="255.68473"
     inkscape:cy="255.05419"
     inkscape:window-width="1920"
     inkscape:window-height="1001"
     inkscape:window-x="-9"
     inkscape:window-y="-9"
     inkscape:window-maximized="1"
     inkscape:current-layer="svg4" />
  <!-- Font Awesome Free 5.15.4 by @fontawesome - https://fontawesome.com License - https://fontawesome.com/license/free (Icons: CC BY 4.0, Fonts: SIL OFL 1.1, Code: MIT License) -->
  <path
     d="M149.333 56v80c0 13.255-10.745 24-24 24H24c-13.255 0-24-10.745-24-24V56c0-13.255 10.745-24 24-24h101.333c13.255 0 24 10.745 24 24zm181.334 240v-80c0-13.255-10.745-24-24-24H205.333c-13.255 0-24 10.745-24 24v80c0 13.255 10.745 24 24 24h101.333c13.256 0 24.001-10.745 24.001-24zm32-240v80c0 13.255 10.745 24 24 24H488c13.255 0 24-10.745 24-24V56c0-13.255-10.745-24-24-24H386.667c-13.255 0-24 10.745-24 24zm-32 80V56c0-13.255-10.745-24-24-24H205.333c-13.255 0-24 10.745-24 24v80c0 13.255 10.745 24 24 24h101.333c13.256 0 24.001-10.745 24.001-24zm-205.334 56H24c-13.255 0-24 10.745-24 24v80c0 13.255 10.745 24 24 24h101.333c13.255 0 24-10.745 24-24v-80c0-13.255-10.745-24-24-24zM0 376v80c0 13.255 10.745 24 24 24h101.333c13.255 0 24-10.745 24-24v-80c0-13.255-10.745-24-24-24H24c-13.255 0-24 10.745-24 24zm386.667-56H488c13.255 0 24-10.745 24-24v-80c0-13.255-10.745-24-24-24H386.667c-13.255 0-24 10.745-24 24v80c0 13.255 10.745 24 24 24zm0 160H488c13.255 0 24-10.745 24-24v-80c0-13.255-10.745-24-24-24H386.667c-13.255 0-24 10.745-24 24v80c0 13.255 10.745 24 24 24zM181.333 376v80c0 13.255 10.745 24 24 24h101.333c13.255 0 24-10.745 24-24v-80c0-13.255-10.745-24-24-24H205.333c-13.255 0-24 10.745-24 24z"
     id="path2" />
  <path
     style="fill:#ffffff;stroke-width:0.630542"
     d="M 17.970443,158.94133 C 11.386652,156.90468 5.6081466,151.9094 2.6011122,145.65517 L 0.63054187,141.55665 0.45228554,97.442049 C 0.27920091,54.607317 0.31118975,53.207858 1.5548751,49.205594 3.7966596,41.991377 9.1874478,36.31874 16.316572,33.672104 19.400843,32.527091 22.05397,32.472906 75.034483,32.472906 h 55.487687 l 4.17632,1.978771 c 5.8315,2.763011 8.95366,5.809628 11.74814,11.463881 l 2.36125,4.777659 v 45.116448 45.116445 l -1.47218,3.64742 c -2.06323,5.11179 -7.19102,10.48595 -12.22191,12.80913 l -3.96108,1.82916 -55.802956,0.10857 c -30.691626,0.0597 -56.512316,-0.11086 -57.379311,-0.37906 z"
     id="path84" />
  <path
     style="fill:#ffffff;stroke-width:0.630542"
     d="m 197.86394,158.35987 c -6.7095,-2.33249 -12.1635,-7.66905 -14.66165,-14.34595 -1.30477,-3.4873 -1.32044,-4.15579 -1.14925,-49.025946 l 0.17356,-45.490437 1.7583,-3.580201 c 2.2936,-4.670173 8.05356,-10.024192 12.88,-11.972249 l 3.64742,-1.472181 H 256 311.48768 l 3.64742,1.472181 c 4.79149,1.933951 10.36821,7.117805 12.77799,11.877798 l 1.86031,3.674652 v 46.344828 46.344825 l -1.695,3.61666 c -2.16563,4.62083 -7.09214,9.54734 -11.71298,11.71297 l -3.61665,1.695 -55.80296,0.14397 c -52.41187,0.13521 -56.00221,0.0747 -59.08187,-0.99592 z"
     id="path123" />
  <path
     style="fill:#ffffff;stroke-width:0.630542"
     d="m 379.15319,158.31956 c -6.74993,-2.6552 -12.03822,-7.68465 -14.50846,-13.79834 l -1.45261,-3.59511 V 95.809665 50.693217 l 2.36125,-4.777659 c 2.79448,-5.654253 5.91664,-8.70087 11.74815,-11.463881 l 4.17631,-1.978771 h 55.48769 c 52.98051,0 55.63364,0.05418 58.71791,1.199198 7.12912,2.646636 12.51991,8.319273 14.7617,15.53349 1.24368,4.002264 1.27567,5.401723 1.10258,48.236455 l -0.17825,44.114601 -1.95125,4.09852 c -2.37734,4.99353 -6.19692,8.91508 -11.26396,11.56468 l -3.80942,1.99197 -56.11823,0.13511 c -53.22347,0.12813 -56.27066,0.0751 -59.07341,-1.02737 z"
     id="path162" />
  <path
     style="fill:#ffffff;stroke-width:0.630542"
     d="m 379.18303,318.23384 c -7.47482,-2.56331 -13.37421,-8.90878 -15.33484,-16.4944 -1.45172,-5.61665 -1.45172,-85.86223 0,-91.47888 1.78139,-6.89213 7.00788,-12.9885 13.86699,-16.17497 l 3.13211,-1.45505 h 56.44676 56.44675 l 4.15148,2.04376 c 4.99976,2.46138 9.42757,6.97131 11.78729,12.00593 l 1.68989,3.60548 v 45.72755 45.72754 l -2.04376,4.15148 c -2.46138,4.99976 -6.97131,9.42757 -12.00593,11.78729 l -3.60548,1.68989 -55.17242,0.15001 -55.17241,0.15001 z"
     id="path201" />
  <path
     style="fill:#ffffff;stroke-width:0.630542"
     d="m 199.25123,318.80752 c -7.02737,-2.24753 -12.15185,-6.53835 -15.18394,-12.71379 l -1.84069,-3.7489 V 256 209.65517 l 1.84069,-3.7489 c 2.43103,-4.95127 6.4069,-8.81898 11.5894,-11.27414 l 4.22508,-2.00159 H 256 312.11823 l 4.22507,2.00159 c 5.18252,2.45516 9.15837,6.32287 11.58941,11.27414 l 1.84069,3.7489 V 256 302.34483 l -1.84069,3.7489 c -2.43104,4.95127 -6.40689,8.81898 -11.58941,11.27414 l -4.22507,2.00159 -55.17242,0.12235 c -43.35047,0.0961 -55.71284,-0.0505 -57.69458,-0.68429 z"
     id="path240" />
  <path
     style="fill:#ffffff;stroke-width:0.630542"
     d="M 17.925895,318.82255 C 11.436161,317.07273 5.364584,311.81288 2.3080399,305.29271 L 0.63054187,301.71429 V 256 210.28571 l 1.68988763,-3.60548 c 2.3597261,-5.03462 6.7875297,-9.54455 11.7872965,-12.00593 l 4.151471,-2.04376 h 56.446755 56.446758 l 3.54682,1.66445 c 6.73822,3.1621 11.67026,9.0572 13.47663,16.10816 0.86019,3.35766 0.96455,9.49602 0.80364,47.26967 -0.20656,48.48981 0.031,45.88192 -4.75521,52.21041 -3.26987,4.32357 -7.03502,7.01948 -11.90377,8.52328 -4.02448,1.24303 -5.61612,1.27705 -57.825665,1.23566 -40.44646,-0.032 -54.398053,-0.2342 -56.56926,-0.81962 z"
     id="path279" />
  <path
     style="fill:#ffffff;stroke-width:0.630542"
     d="M 19.488212,479.19253 C 10.944301,477.49859 3.7798776,470.77382 1.2918035,462.11278 0.39071269,458.97606 0.29457977,453.52426 0.45235805,414.50687 l 0.17818382,-44.06352 1.96713683,-4.09852 c 2.37364,-4.94547 6.5978766,-9.27095 11.4589943,-11.73363 l 3.598499,-1.82302 h 56.748769 56.748769 l 3.96108,1.82916 c 5.03089,2.32318 10.15868,7.69734 12.22191,12.80913 l 1.47218,3.64742 v 45.08375 45.08374 l -1.97877,4.17632 c -1.08832,2.29697 -2.99839,5.30491 -4.24459,6.68431 -2.73743,3.03 -8.33593,6.09023 -12.88157,7.04127 -3.94516,0.82541 -106.06977,0.87104 -110.214738,0.0492 z"
     id="path318" />
  <path
     style="fill:#ffffff;stroke-width:0.630542"
     d="m 199.58179,478.84016 c -1.89898,-0.51504 -4.60431,-1.61133 -6.01184,-2.4362 -3.48658,-2.04326 -8.24943,-7.26405 -9.94462,-10.90078 l -1.39873,-3.00072 v -46.3579 -46.35789 l 2.07243,-4.2099 c 2.40308,-4.88157 6.34029,-8.70174 11.48422,-11.14283 l 3.46798,-1.64576 H 256 312.74877 l 3.61665,1.695 c 4.62084,2.16563 9.54735,7.09214 11.71298,11.71297 l 1.695,3.61666 v 46.34483 46.34482 l -1.86031,3.67466 c -2.40978,4.75999 -7.9865,9.94384 -12.77799,11.87779 l -3.64742,1.47218 -54.2266,0.12475 c -46.26654,0.10644 -54.73343,-0.0127 -57.67929,-0.81168 z"
     id="path357" />
  <path
     style="fill:#ffffff;stroke-width:0.630542"
     d="m 381.47783,478.9786 c -7.50331,-1.84888 -12.87376,-6.31496 -16.30694,-13.5609 l -1.97877,-4.17632 v -45.08374 -45.08375 l 1.46323,-3.62351 c 2.04263,-5.0583 6.77737,-10.04049 11.97203,-12.59774 l 4.19365,-2.06446 h 56.7619 56.7619 l 3.56979,1.78137 c 4.8551,2.42277 9.15826,6.82562 11.50863,11.77528 l 1.94621,4.09852 0.17825,44.1146 c 0.17309,42.83473 0.1411,44.23419 -1.10258,48.23645 -2.19156,7.05257 -7.11833,12.34004 -14.41314,15.46836 -2.86734,1.22963 -4.43644,1.26747 -57.17485,1.37852 -41.1614,0.0867 -54.9862,-0.073 -57.37931,-0.66268 z"
     id="path396" />
</svg>
